<?xml version="1.0" standalone="no"?><!DOCTYPE svg PUBLIC "-//W3C//DTD SVG 1.1//EN" "http://www.w3.org/Graphics/SVG/1.1/DTD/svg11.dtd"><svg t="1580630099829" class="icon" viewBox="0 0 1024 1024" version="1.1" xmlns="http://www.w3.org/2000/svg" p-id="1238" xmlns:xlink="http://www.w3.org/1999/xlink" width="200" height="200"><defs><style type="text/css"></style></defs><path d="M11.6 746.7h501.5v33.4H11.6z" fill="#225de4" p-id="1239"></path><path d="M479.6 512.7h33.5v267.4h-33.5zM880.8 512.7h33.4v267.4h-33.4z" fill="#225de4" p-id="1240"></path><path d="M880.8 746.7h133.7v33.4H880.8z" fill="#225de4" p-id="1241"></path><path d="M345.9 613v33.4h-66.8V613h66.8m33.5-33.4H245.7v100.3h133.7V579.6zM747.1 613v100.2H646.8V613h100.3m33.4-33.4H613.3v167.2h167.2V579.6z" fill="#225de4" p-id="1242"></path><path d="M112 546.1h33.4v167.1H112z" fill="#225de4" p-id="1243"></path><path d="M312.9 354.2l82.4 61.9-96.7 96.7H109l203.9-158.6m-0.4-42.1l-300.8 234h300.8l133.7-133.7-133.7-100.3zM681.4 291.3l246 221.4H460.1l221.3-221.4m-1.2-46.1L379.4 546.1h635.2L680.2 245.2z" fill="#225de4" p-id="1244"></path></svg>